<?xml version="1.0" standalone="no"?>
<!DOCTYPE svg PUBLIC "-//W3C//DTD SVG 20010904//EN"
 "http://www.w3.org/TR/2001/REC-SVG-20010904/DTD/svg10.dtd">
<svg version="1.0" xmlns="http://www.w3.org/2000/svg"
 width="236.000000pt" height="236.000000pt" viewBox="0 0 236.000000 236.000000"
 preserveAspectRatio="xMidYMid meet">
<metadata>
Created by potrace 1.11, written by Peter Selinger 2001-2013
</metadata>
<g transform="translate(0.000000,236.000000) scale(0.100000,-0.100000)"
fill="#000000" stroke="none">
<path d="M465 2126 c-56 -26 -85 -66 -85 -116 0 -17 -8 -42 -18 -55 -18 -23
-18 -23 -14 28 2 29 -1 66 -8 82 l-12 30 -24 -28 c-35 -40 -37 -103 -5 -143
20 -25 20 -25 -7 -69 -15 -24 -30 -45 -33 -45 -4 0 -10 11 -13 25 -4 14 -13
25 -21 25 -23 0 -30 -47 -10 -76 18 -28 18 -29 -13 -112 l-19 -52 -11 38 c-12
39 -66 101 -78 89 -13 -12 -16 -102 -5 -130 6 -15 26 -37 45 -48 32 -19 33
-22 26 -56 -5 -20 -8 -39 -8 -42 0 -3 0 -33 -1 -66 l-1 -60 -26 33 c-29 36
-41 40 -47 15 -6 -27 21 -73 48 -83 19 -7 25 -17 26 -42 0 -18 2 -40 4 -48 1
-8 6 -33 10 -55 l7 -40 -38 37 c-43 41 -112 74 -125 61 -13 -13 14 -109 37
-134 25 -28 85 -58 122 -61 27 -2 32 -9 54 -63 l24 -62 -33 10 c-18 6 -36 7
-40 4 -12 -13 40 -57 67 -57 20 0 34 -11 57 -42 47 -68 47 -66 -2 -61 -50 6
-115 -4 -115 -17 0 -21 55 -71 91 -81 30 -10 51 -10 91 -1 48 12 51 11 74 -13
13 -14 26 -25 30 -25 4 0 -4 13 -19 28 -26 27 -27 30 -12 58 8 16 15 45 15 65
0 41 -47 142 -64 136 -21 -6 -47 -71 -42 -105 l5 -32 -23 27 c-41 50 -46 65
-30 95 18 34 18 32 -3 71 l-17 32 -11 -38 c-10 -37 -11 -38 -22 -15 -36 78
-36 80 -4 105 67 53 90 131 63 211 l-14 43 -25 -23 c-37 -34 -60 -78 -69 -128
l-8 -45 -7 40 c-4 22 -10 64 -14 94 -6 51 -5 54 24 80 32 27 48 76 29 87 -6 4
-22 -6 -36 -22 l-24 -29 6 89 c3 49 8 92 11 95 3 3 25 5 50 6 32 0 51 7 70 25
27 25 55 71 55 89 0 20 -117 -8 -132 -32 -4 -6 -10 -8 -14 -5 -4 4 4 35 16 68
22 60 23 60 55 54 26 -5 38 -1 54 15 12 12 19 26 16 31 -8 13 -42 13 -67 -1
-18 -10 -18 -7 6 33 15 23 30 49 34 55 6 10 16 10 44 1 20 -6 47 -8 61 -4 31
7 89 55 84 69 -5 17 -66 18 -104 2 -47 -20 -48 -20 -23 15 12 17 25 28 29 26
4 -3 25 4 48 14 30 13 46 29 62 62 24 49 27 88 9 88 -7 0 -35 -11 -63 -24z"/>
<path d="M1810 2127 c0 -66 51 -127 118 -142 18 -3 37 -16 43 -27 6 -11 13
-17 16 -14 3 3 0 12 -7 21 -7 8 -14 31 -16 52 -6 61 -55 111 -126 128 -25 6
-28 4 -28 -18z"/>
<path d="M2011 2072 c-14 -25 -19 -83 -10 -113 8 -30 1 -31 -67 -11 -45 13
-86 11 -91 -4 -2 -6 10 -23 27 -39 24 -23 40 -29 73 -29 23 0 50 3 59 8 14 6
24 -2 48 -40 16 -26 30 -42 30 -36 0 7 -12 30 -26 52 l-26 39 21 27 c27 34 27
89 1 132 -23 37 -26 38 -39 14z"/>
<path d="M2093 1820 c-11 -28 -20 -37 -27 -30 -14 14 -53 13 -62 -2 -13 -20
36 -50 71 -44 31 6 32 5 53 -56 12 -35 22 -66 22 -70 0 -4 -16 4 -36 17 -20
14 -44 25 -53 26 -9 0 -28 2 -43 4 -25 3 -26 1 -18 -20 26 -70 81 -111 135
-102 40 7 41 5 51 -104 l7 -84 -28 28 c-32 32 -41 34 -43 10 -1 -34 21 -73 44
-79 19 -5 22 -11 19 -37 -12 -112 -14 -150 -5 -124 5 15 10 49 11 75 3 54 14
82 33 82 19 0 46 44 46 75 0 33 -13 32 -44 -6 l-26 -31 -1 49 c-1 54 -5 95
-13 135 -4 21 -1 27 19 32 33 8 56 45 60 95 3 48 -4 91 -16 91 -15 0 -63 -60
-75 -92 l-10 -31 -13 34 c-7 19 -19 48 -26 66 -10 21 -11 34 -4 39 16 10 28
50 22 73 -9 34 -33 24 -50 -19z"/>
<path d="M557 1787 c-2 -6 -2 -20 1 -29 3 -15 16 -18 66 -18 l61 0 0 -462 c0
-255 -3 -465 -7 -468 -4 -3 -31 -6 -60 -5 -57 1 -68 -6 -61 -36 5 -17 16 -19
144 -19 133 0 139 -1 150 -22 6 -13 27 -42 46 -65 102 -127 289 -152 428 -58
60 41 80 68 62 84 -10 7 -22 2 -47 -20 -19 -17 -57 -42 -85 -55 -177 -85 -349
63 -349 301 -1 44 2 94 5 110 12 56 50 132 84 165 l33 32 26 -39 26 -39 -40
-79 c-62 -125 -63 -222 -1 -295 58 -69 177 -54 217 28 38 80 23 245 -33 356
-20 40 -23 53 -14 72 13 29 24 30 66 4 56 -35 86 -96 41 -84 -24 6 -56 -17
-56 -40 0 -25 41 -66 65 -66 54 0 76 99 36 164 -13 20 -43 48 -67 62 l-44 26
138 203 137 202 3 -440 c1 -242 0 -443 -3 -446 -3 -3 -31 -5 -63 -6 -54 0 -57
-2 -60 -28 l-3 -27 195 0 196 0 0 29 c0 28 -1 28 -55 26 -31 -1 -59 3 -63 9
-5 6 -8 216 -8 466 l1 455 63 3 c61 3 62 3 62 32 l0 29 -133 -1 -133 0 -154
-230 c-85 -126 -163 -238 -172 -248 -37 -40 -55 -21 -214 233 l-151 242 -136
2 c-100 2 -137 -1 -140 -10z m423 -527 c-10 -8 -30 -24 -44 -34 -43 -31 -92
-106 -116 -176 -19 -55 -21 -79 -17 -155 l5 -91 -34 0 -34 0 0 440 0 440 129
-204 c120 -192 127 -206 111 -220z m164 -227 c36 -72 56 -150 50 -192 -7 -46
-20 -61 -51 -61 -79 0 -113 89 -79 204 14 44 41 96 51 96 3 0 15 -21 29 -47z"/>
<path d="M2050 1273 c-36 -77 -16 -159 53 -220 32 -28 34 -32 22 -60 -24 -56
-27 -80 -6 -43 11 19 20 42 21 51 0 11 15 21 48 29 96 24 152 85 152 165 0 33
-2 36 -22 29 -43 -13 -79 -35 -109 -66 -38 -40 -54 -43 -57 -10 -3 36 -37 104
-65 131 l-24 21 -13 -27z"/>
<path d="M2049 954 c-6 -19 -6 -37 2 -61 10 -31 8 -38 -16 -74 -14 -23 -24
-43 -21 -46 3 -3 18 15 33 41 20 33 34 46 51 46 31 0 59 16 72 40 10 19 8 20
-31 18 -40 -3 -43 -1 -52 30 -12 39 -24 41 -38 6z"/>
<path d="M1924 859 c-26 -52 -29 -107 -9 -165 5 -16 -1 -29 -21 -49 l-28 -29
-6 24 c-5 20 -7 21 -18 7 -7 -8 -15 -28 -16 -43 -2 -18 -16 -37 -41 -55 -47
-36 -51 -39 -38 -39 6 0 26 14 44 30 19 17 43 30 54 29 64 -4 85 9 45 27 -20
9 -19 11 13 42 32 31 38 33 69 24 77 -21 161 8 186 64 11 22 9 23 -34 30 -25
3 -60 4 -79 1 -37 -6 -49 8 -41 49 5 24 -28 104 -43 104 -6 0 -22 -23 -37 -51z"/>
<path d="M482 630 c-7 -16 -23 -32 -34 -36 -21 -6 -21 -7 2 -19 13 -7 31 -10
41 -8 10 3 39 -10 65 -28 l48 -32 -39 -14 c-21 -7 -44 -18 -52 -25 -12 -10
-11 -14 9 -24 31 -18 61 -17 102 3 34 16 37 15 70 -2 l35 -19 -34 -20 c-42
-24 -64 -66 -59 -115 4 -47 21 -76 51 -90 71 -32 150 22 102 70 -24 24 -32 24
-53 0 -14 -15 -15 -24 -6 -40 9 -18 8 -21 -7 -21 -35 1 -73 47 -73 89 0 28 40
71 72 76 37 7 64 -6 128 -58 72 -59 145 -97 186 -97 69 0 118 86 75 129 -29
29 -64 13 -59 -27 2 -21 10 -28 33 -33 l30 -6 -30 -12 c-45 -19 -91 0 -160 64
-67 63 -98 82 -145 90 -18 3 -50 15 -71 26 -38 19 -40 22 -34 57 5 38 -20 102
-43 110 -16 5 -31 -58 -20 -86 9 -27 3 -24 -54 21 -28 21 -38 36 -38 57 0 43
-23 55 -38 20z"/>
<path d="M1694 595 c-12 -19 -19 -46 -18 -76 0 -45 -2 -49 -38 -69 -21 -12
-55 -24 -75 -26 -41 -5 -77 -28 -146 -94 -56 -52 -97 -72 -134 -66 -41 8 -48
23 -14 29 25 5 31 12 31 31 0 34 -30 50 -58 30 -32 -22 -29 -69 7 -105 51 -51
123 -33 240 62 72 58 104 72 142 64 64 -14 85 -99 34 -142 -36 -31 -53 -30
-47 5 6 41 -20 60 -53 38 -31 -20 -32 -39 -4 -67 17 -17 29 -20 63 -16 57 8
86 43 86 105 0 53 -17 85 -61 111 l-28 17 34 18 c33 18 36 18 71 1 29 -13 46
-16 73 -9 52 13 46 36 -14 56 -49 16 -50 17 -47 55 2 22 -3 46 -11 57 -14 19
-15 18 -33 -9z"/>
</g>
</svg>
